<?xml version="1.0" encoding="UTF-8" standalone="no"?>
<svg width="16px" height="16px" viewBox="0 0 16 16" version="1.1" xmlns="http://www.w3.org/2000/svg" xmlns:xlink="http://www.w3.org/1999/xlink">
    <!-- Generator: Sketch 39.1 (31720) - http://www.bohemiancoding.com/sketch -->
    <title>Artboard Copy 3</title>
    <desc>Created with Sketch.</desc>
    <defs></defs>
    <g id="Page-1" stroke="none" stroke-width="1" fill="none" fill-rule="evenodd">
        <g id="Artboard-Copy-3" fill="#0696D7">
            <g id="i-icon-copy-9" transform="translate(8.000000, 8.000000) rotate(-180.000000) translate(-8.000000, -8.000000) translate(0.000000, -0.000000)">
                <path d="M1.00050111,8.09274477 C1.04609394,11.9529382 4.22307377,15.0451985 8.09230992,14.9994989 C11.9525033,14.9539061 15.0447637,11.7769262 14.9991183,7.91162596 C14.9380996,4.0369407 11.7660332,0.94017555 7.91119111,1.00088172 C4.04706183,1.04652879 0.954801467,4.22350862 1.00050111,8.09274477 Z M15.9989943,7.89587988 C16.0511631,12.3128359 12.5210762,15.9472604 8.10412012,15.9994292 C3.68716408,16.0515979 0.0527396216,12.521511 0.000570849472,8.10455497 C-0.0515979226,3.68759893 3.47848899,0.0531744738 7.89544503,0.00100570166 C12.3124011,-0.0685526612 15.9294359,3.47892384 15.9989943,7.89587988 Z" id="Path-Copy-2"></path>
                <path d="M8.86111111,11.7287582 L7.11111111,11.7287582 L7.11111111,10.0555556 L8.86111111,10.0555556 L8.86111111,11.7287582 Z M8.86111111,8.55555556 L7.11111111,8.55555556 L7.11111111,3.55555556 L8.86111111,3.55555556 L8.86111111,8.55555556 Z" id="Path" transform="translate(7.986111, 7.642157) scale(1, -1) rotate(-180.000000) translate(-7.986111, -7.642157) "></path>
            </g>
        </g>
    </g>
</svg>