<?xml version="1.0" encoding="UTF-8" standalone="no"?>
<svg width="16px" height="16px" viewBox="0 0 16 16" version="1.1" xmlns="http://www.w3.org/2000/svg" xmlns:xlink="http://www.w3.org/1999/xlink">
    <!-- Generator: Sketch 39.1 (31720) - http://www.bohemiancoding.com/sketch -->
    <title>Artboard Copy 2</title>
    <desc>Created with Sketch.</desc>
    <defs>
        <path d="M7.89544503,0.00100570166 C3.47848899,0.0531744738 -0.0515979226,3.68759893 0.000570849472,8.10455497 C0.0527396216,12.521511 3.68716408,16.0515979 8.10412012,15.9994292 C12.5210762,15.9472604 16.0511631,12.3128359 15.9989943,7.89587988 C15.9294359,3.47892384 12.3124011,-0.0685526612 7.89544503,0.00100570166 L7.89544503,0.00100570166 Z" id="path-1"></path>
        <mask id="mask-2" maskContentUnits="userSpaceOnUse" maskUnits="objectBoundingBox" x="0" y="0" width="15.9995651" height="16" fill="white">
            <use xlink:href="#path-1"></use>
        </mask>
    </defs>
    <g id="Page-1" stroke="none" stroke-width="1" fill="none" fill-rule="evenodd">
        <g id="Artboard-Copy-2">
            <g id="i-icon-copy-9" transform="translate(8.000000, 8.000000) rotate(-180.000000) translate(-8.000000, -8.000000) translate(0.000000, -0.000000)">
                <use id="Path-Copy-2" stroke="#0696D7" mask="url(#mask-2)" stroke-width="2" fill="#0696D7" xlink:href="#path-1"></use>
                <path d="M8.86111111,11.7287582 L7.11111111,11.7287582 L7.11111111,10.0555556 L8.86111111,10.0555556 L8.86111111,11.7287582 Z M8.86111111,8.55555556 L7.11111111,8.55555556 L7.11111111,3.55555556 L8.86111111,3.55555556 L8.86111111,8.55555556 Z" id="Path" fill="#FFFFFF" transform="translate(7.986111, 7.642157) scale(1, -1) rotate(-180.000000) translate(-7.986111, -7.642157) "></path>
            </g>
        </g>
    </g>
</svg>