<?xml version="1.0" encoding="UTF-8" standalone="no"?>
<svg width="17px" height="17px" viewBox="0 0 17 17" version="1.1" xmlns="http://www.w3.org/2000/svg" xmlns:xlink="http://www.w3.org/1999/xlink">
    <!-- Generator: Sketch 39.1 (31720) - http://www.bohemiancoding.com/sketch -->
    <title>Artboard Copy 42</title>
    <desc>Created with Sketch.</desc>
    <defs></defs>
    <g id="Page-1" stroke="none" stroke-width="1" fill="none" fill-rule="evenodd">
        <g id="Artboard-Copy-42" fill="#DC3C1E">
            <g id="Group-9" transform="translate(-0.500000, 0.500000)">
                <g id="Group-8-Copy-2" transform="translate(8.000000, 5.500000)">
                    <path d="M2,8 L-4.4408921e-16,8 L-4.4408921e-16,6.3622551 L2,6.3622551 L2,8 Z M2,4.89404238 L-1.33226763e-15,4.89404238 L-1.33226763e-15,1.77635684e-15 L2,1.77635684e-15 L2,4.89404238 Z" id="Path" transform="translate(1.000000, 4.000000) scale(1, -1) rotate(-180.000000) translate(-1.000000, -4.000000) "></path>
                </g>
                <path d="M9.93422279,1.03771558 C9.75138616,0.70133516 9.38483596,0.5 8.99888621,0.5 C8.62404372,0.5 8.26036448,0.708443372 8.06934696,1.02776591 L0.640182861,14.12216 C0.453033715,14.4661323 0.453033715,14.8719091 0.645980196,15.1944563 C0.836997716,15.5137789 1.20067696,15.7222222 1.57551945,15.7222222 L16.4389347,15.7222222 C16.8248844,15.7222222 17.1914346,15.5208871 17.3786366,15.1766485 C17.5455494,14.8115229 17.5372932,14.422311 17.3517922,14.1122104 L9.93422279,1.03771558 Z M16.483969,14.7313922 C16.4945715,14.7091396 16.4707533,14.7222222 16.4389347,14.7222222 L1.57551945,14.7222222 C1.55417101,14.7222222 1.51549435,14.7000546 1.50415531,14.6810992 C1.49692112,14.6690059 1.49692112,14.6397501 1.51431799,14.6077596 L8.93331941,1.5311733 C8.93886111,1.5221676 8.97753777,1.5 8.99888621,1.5 C9.03070482,1.5 9.05452306,1.51308266 9.06008766,1.52331518 L16.4878198,14.6156177 C16.5035131,14.6421104 16.5044483,14.6862018 16.483969,14.7313922 Z" id="Shape-Copy-13"></path>
            </g>
        </g>
    </g>
</svg>